# xmcd
#
# Track frame offsets: 
#        150
#        29351
#        47662
#        70041
#        94284
#        112326
#        129458
#        154772
#        177491
#        200744
#        218032
#        250943
#        272396
#        294391
#        304995
#
# Disc length: 4314 seconds
#
# Revision: 0
# Processed by: cddbd v1.5.2PL0 Copyright (c) Steve Scherf et al.
# Submitted via: ExactAudioCopy v1.0b4
#
DISCID=e210d80f
DTITLE=Lizzy Neal Band - So Long Heartache
DYEAR=2013
DGENRE=Blues
TTITLE0=Drownin'
TTITLE1=Haven't I Been Good To You
TTITLE2=So Long Heartache
TTITLE3=Cryin' Won't Help
TTITLE4=Strange Feelin'
TTITLE5=Brother Will
TTITLE6=Blues On My Mind
TTITLE7=Muddy Water
TTITLE8=Too Many Days
TTITLE9=Movin' On'
TTITLE10=Stormy Monday
TTITLE11=The Road
TTITLE12=Midnight
TTITLE13=Thank You (Lizzi)
TTITLE14=I Wanna Dance
EXTD=
EXTT0=
EXTT1=
EXTT2=
EXTT3=
EXTT4=
EXTT5=
EXTT6=
EXTT7=
EXTT8=
EXTT9=
EXTT10=
EXTT11=
EXTT12=
EXTT13=
EXTT14=
PLAYORDER=
